# xmcd CD database file
#
# Track frame offsets:
#	150
#	13162
#	28779
#	47005
#	65879
#	81968
#	97973
#	114886
#	128281
#	146875
#
# Disc length: 2306 seconds
#
# Revision: 0
# Processed by: cddbd v1.5.1PL0 Copyright (c) Steve Scherf et al.
# Submitted via: CDex 1.51
#
DISCID=8209000a
DTITLE=Melany Joy Beck - Built for Comfort Not for Speed
DYEAR=1999
DGENRE=Country
TTITLE0=Built for Comfort Not Speed
TTITLE1=The First Time
TTITLE2=Double Helix
TTITLE3=Jane Doe
TTITLE4=35
TTITLE5=Time of Love and Fear
TTITLE6=Push
TTITLE7=Human Condition
TTITLE8=Light Inside
TTITLE9=Anchor
EXTD=YEAR: 1999
EXTT0=
EXTT1=
EXTT2=
EXTT3=
EXTT4=
EXTT5=
EXTT6=
EXTT7=
EXTT8=
EXTT9=
PLAYORDER=
